name C:/MyDriveSym/Projects/mobilecap/Data\Session20210830_0002\mocap\ForceDataProcessed\walkingTS3_forces.mot
datacolumns 19
datarows 12
range 0.34200000 0.34750000
endheader 
time	R_ground_force_vx	R_ground_force_vy	R_ground_force_vz	R_ground_force_px	R_ground_force_py	R_ground_force_pz	R_ground_torque_x	R_ground_torque_y	R_ground_torque_z	L_ground_force_vx	L_ground_force_vy	L_ground_force_vz	L_ground_force_px	L_ground_force_py	L_ground_force_pz	L_ground_torque_x	L_ground_torque_y	L_ground_torque_z	
          0.34200000	        -14.05428800	        605.67491400	        -34.05876900	          0.25106400	          0.00600000	         -0.13695100	          0.00000000	         -3.54509800	          0.00000000	          0.00000000	          0.00000000	          0.00000000	          0.68966600	          0.00000000	         -0.26819600	          0.00000000	          0.00000000	          0.00000000	
          0.34250000	        -13.86884600	        606.08593300	        -34.12752800	          0.25123900	          0.00600000	         -0.13695700	          0.00000000	         -3.55603700	          0.00000000	          0.00000000	          0.00000000	          0.00000000	          0.68966600	          0.00000000	         -0.26819600	          0.00000000	          0.00000000	          0.00000000	
          0.34300000	        -13.68349700	        606.50116900	        -34.19741600	          0.25141400	          0.00600000	         -0.13696200	          0.00000000	         -3.56695000	          0.00000000	          0.00000000	          0.00000000	          0.00000000	          0.68966600	          0.00000000	         -0.26819600	          0.00000000	          0.00000000	          0.00000000	
          0.34350000	        -13.49823700	        606.92060300	        -34.26843100	          0.25159000	          0.00600000	         -0.13696800	          0.00000000	         -3.57783700	          0.00000000	          0.00000000	          0.00000000	          0.00000000	          0.68966600	          0.00000000	         -0.26819600	          0.00000000	          0.00000000	          0.00000000	
          0.34400000	        -13.31306000	        607.34421400	        -34.34057300	          0.25176500	          0.00600000	         -0.13697300	          0.00000000	         -3.58869600	          0.00000000	          0.00000000	          0.00000000	          0.00000000	          0.68966600	          0.00000000	         -0.26819600	          0.00000000	          0.00000000	          0.00000000	
          0.34450000	        -13.12796300	        607.77198400	        -34.41384000	          0.25194200	          0.00600000	         -0.13697800	          0.00000000	         -3.59952800	          0.00000000	          0.00000000	          0.00000000	          0.00000000	          0.68966600	          0.00000000	         -0.26819600	          0.00000000	          0.00000000	          0.00000000	
          0.34500000	        -12.94294100	        608.20389300	        -34.48822900	          0.25211900	          0.00600000	         -0.13698300	          0.00000000	         -3.61032900	          0.00000000	          0.00000000	          0.00000000	          0.00000000	          0.68966600	          0.00000000	         -0.26819600	          0.00000000	          0.00000000	          0.00000000	
          0.34550000	        -12.75798900	        608.63992200	        -34.56373900	          0.25229600	          0.00600000	         -0.13698800	          0.00000000	         -3.62110100	          0.00000000	          0.00000000	          0.00000000	          0.00000000	          0.68966600	          0.00000000	         -0.26819600	          0.00000000	          0.00000000	          0.00000000	
          0.34600000	        -12.57310300	        609.08005000	        -34.64036800	          0.25247300	          0.00600000	         -0.13699200	          0.00000000	         -3.63184100	          0.00000000	          0.00000000	          0.00000000	          0.00000000	          0.68966600	          0.00000000	         -0.26819600	          0.00000000	          0.00000000	          0.00000000	
          0.34650000	        -12.38827900	        609.52425800	        -34.71811400	          0.25265100	          0.00600000	         -0.13699700	          0.00000000	         -3.64254900	          0.00000000	          0.00000000	          0.00000000	          0.00000000	          0.68966600	          0.00000000	         -0.26819600	          0.00000000	          0.00000000	          0.00000000	
          0.34700000	        -12.20351300	        609.97252600	        -34.79697400	          0.25283000	          0.00600000	         -0.13700100	          0.00000000	         -3.65322400	          0.00000000	          0.00000000	          0.00000000	          0.00000000	          0.68966600	          0.00000000	         -0.26819600	          0.00000000	          0.00000000	          0.00000000	
          0.34750000	        -12.01880100	        610.42483400	        -34.87694700	          0.25300900	          0.00600000	         -0.13700500	          0.00000000	         -3.66386400	          0.00000000	          0.00000000	          0.00000000	          0.00000000	          0.68966600	          0.00000000	         -0.26819600	          0.00000000	          0.00000000	          0.00000000	
